{"title":"Gullivers.Travels.2010.R5.AC3.XViD-T0XiC-iNK","uid":6150468,"size":1518350365,"categoryP":"video","categoryS":"movies","magnet":"?xt=urn:btih:cc4cadad741c7b016170d79b0b43c34c053d29b4&amp;dn=Gullivers.Travels.2010.R5.AC3.XViD-T0XiC-iNK&amp;tr=udp%3A%2F%2Ftracker.openbittorrent.com%3A80&amp;tr=udp%3A%2F%2Fopen.demonii.com%3A1337&amp;tr=udp%3A%2F%2Ftracker.coppersurfer.tk%3A6969&amp;tr=udp%3A%2F%2Fexodus.desync.com%3A6969","seeders":4,"leechers":1,"uploader":"SAFCukO09","files":4,"time":1296859787,"description":":::::::::::::Enjoy:Another:Release:From:T0XiC::::::::::::::\n\n\n\nFile:: Gullivers.Travels.2010.R5.AC3.XViD-T0XiC-iNK\n\nVideo Source:: ....Elektri4ka\n\nAudio Source:: ....Own LiNE\n\nLanguage::English\n\nIMDB: http://www.imdb.com/title/tt1320261/\n\n\n\nTravel writer Lemuel Gulliver takes an assignment in Bermuda, but ends up on the island of\n\nLiliput, where he towers over its tiny citizens.\n\n\n\nSpecs::\n\n\n\nGeneral\n\n\n\nFormat                           : AVI\n\nFormat/Info                      : Audio Video Interleave\n\nFile size                        : 1.40 GiB\n\nDuration                         : 1h 21mn\n\nOverall bit rate                 : 2 475 Kbps\n\nWriting application              : VirtualDubMod 1.5.10.2 (build 2540/release)\n\nWriting library                  : VirtualDubMod build 2540/release\n\n\n\nVideo\n\nID                               : 0\n\nFormat                           : MPEG-4 Visual\n\nFormat profile                   : Advanced Simple@L5\n\nFormat settings, BVOP            : Yes\n\nFormat settings, QPel            : No\n\nFormat settings, GMC             : No warppoints\n\nFormat settings, Matrix          : Custom\n\nCodec ID                         : XVID\n\nCodec ID/Hint                    : XviD\n\nDuration                         : 1h 21mn\n\nBit rate                         : 2 017 Kbps\n\nWidth                            : 720 pixels\n\nHeight                           : 304 pixels\n\nDisplay aspect ratio             : 2.35:1\n\nFrame rate                       : 25.000 fps\n\nColor space                      : YUV\n\nChroma subsampling               : 4:2:0\n\nBit depth                        : 8 bits\n\nScan type                        : Progressive\n\nBits/(Pixel*Frame)               : 0.369\n\nStream size                      : 1.14 GiB (82%)\n\nWriting library                  : XviD 58\n\n\n\nAudio\n\nID                               : 1\n\nFormat                           : AC-3\n\nFormat/Info                      : Audio Coding 3\n\nMode extension                   : CM (complete main)\n\nCodec ID                         : 2000\n\nDuration                         : 1h 21mn\n\nBit rate mode                    : Constant\n\nBit rate                         : 448 Kbps\n\nChannel(s)                       : 6 channels\n\nChannel positions                : Front: L C R, Side: L R, LFE\n\nSampling rate                    : 48.0 KHz\n\nBit depth                        : 16 bits\n\nStream size                      : 260 MiB (18%)\n\nAlignment                        : Split accross interleaves\n\nInterleave, duration             : 40 ms (1.00 video frame)\n\nInterleave, preload duration     : 500 ms\n\n\n\nNOTES:: T0XiC-iNK is proud to present, Gullivers Travels R5, the first R5 with our usual great LiNE, then\n\nupscaled to 5.1 using genuine russian surrounds. Enjoy\n\n\n\n\n\n::Why Complain? Whats Free Is Free::\n\n\n\n::iNK is currently a free agent looking for work, if you would like iNK's touch, give me a email at:\n\n...&lt;a class=&quot;__cf_email__&quot; href=&quot;/cdn-cgi/l/email-protection&quot; data-cfemail=&quot;6e0a0709071a0f02400700052e0207180b400d0103&quot;&gt;[email&amp;#160;protected]&lt;/a&gt;&lt;script cf-hash='f9e31' type=&quot;text/javascript&quot;&gt;\n/* &lt;![CDATA[ */!function(){try{var t=&quot;currentScript&quot;in document?document.currentScript:function(){for(var t=document.getElementsByTagName(&quot;script&quot;),e=t.length;e--;)if(t[e].getAttribute(&quot;cf-hash&quot;))return t[e]}();if(t&amp;&amp;t.previousSibling){var e,r,n,i,c=t.previousSibling,a=c.getAttribute(&quot;data-cfemail&quot;);if(a){for(e=&quot;&quot;,r=parseInt(a.substr(0,2),16),n=2;a.length-n;n+=2)i=parseInt(a.substr(n,2),16)^r,e+=String.fromCharCode(i);e=document.createTextNode(e),c.parentNode.replaceChild(e,c)}}}catch(u){}}();/* ]]&gt; */&lt;/script&gt;\n\n\n\n::We are always looking for friends with unreleased DVD's, Screeners, R5's, Audio, Cams, Silvers,\n\n...and any other good sources you may have to offer - contact us: &lt;a class=&quot;__cf_email__&quot; href=&quot;/cdn-cgi/l/email-protection&quot; data-cfemail=&quot;2753175f4e4455424b4246544254674f52544f4a464e4b0944484a&quot;&gt;[email&amp;#160;protected]&lt;/a&gt;&lt;script cf-hash='f9e31' type=&quot;text/javascript&quot;&gt;\n/* &lt;![CDATA[ */!function(){try{var t=&quot;currentScript&quot;in document?document.currentScript:function(){for(var t=document.getElementsByTagName(&quot;script&quot;),e=t.length;e--;)if(t[e].getAttribute(&quot;cf-hash&quot;))return t[e]}();if(t&amp;&amp;t.previousSibling){var e,r,n,i,c=t.previousSibling,a=c.getAttribute(&quot;data-cfemail&quot;);if(a){for(e=&quot;&quot;,r=parseInt(a.substr(0,2),16),n=2;a.length-n;n+=2)i=parseInt(a.substr(n,2),16)^r,e+=String.fromCharCode(i);e=document.createTextNode(e),c.parentNode.replaceChild(e,c)}}}catch(u){}}();/* ]]&gt; */&lt;/script&gt;\n\n\n\n::::::::::::::::::::::::::::::::::::   Respect To   :::::::::::::::::::::::::::::::::::::\n\n::IMAGiNE,FLAWL3SS,Hive-CM8,Rx,DiGiTALiNK,Tranz,Vik,OneTwo,Joey,bob,Unevano &amp; our friends on utn and PA::\n\n                      &quot;and to all of you who support us, Thank-You&quot;","torrent":{"xt":"urn:btih:cc4cadad741c7b016170d79b0b43c34c053d29b4","amp;dn":"Gullivers.Travels.2010.R5.AC3.XViD-T0XiC-iNK","amp;tr":["udp%3A%2F%2Ftracker.openbittorrent.com%3A80","udp%3A%2F%2Fopen.demonii.com%3A1337","udp%3A%2F%2Ftracker.coppersurfer.tk%3A6969","udp%3A%2F%2Fexodus.desync.com%3A6969"],"infoHash":"cc4cadad741c7b016170d79b0b43c34c053d29b4","infoHashBuffer":{"type":"Buffer","data":[204,76,173,173,116,28,123,1,97,112,215,155,11,67,195,76,5,61,41,180]},"announce":[],"urlList":[]}}